<?xml version="1.0" encoding="iso-8859-1"?><!-- Generator: Adobe Illustrator 19.2.1, SVG Export Plug-In . SVG Version: 6.00 Build 0)  --><svg xmlns="http://www.w3.org/2000/svg" xmlns:xlink="http://www.w3.org/1999/xlink" viewBox="0 0 50 50" width="50px" height="50px"><path style="fill:none;stroke:#000000;stroke-width:2;stroke-linecap:round;stroke-linejoin:round;stroke-miterlimit:10;" d="M32.507,25c3.685,0,5.344-1.398,5.87-1.714c-0.692-0.904-1.044-1.999-1.15-3.17c-0.328-3.624,1.718-5.316,1.718-5.316s2.978,1.691,3.691,5.452C46.576,19.171,49,21.17,49,21.17s-1.233,4.329-7.482,4.092C37.272,35.837,28.184,41,17,41C4.96,41,1,32.235,1,26.759C1,25.768,1.138,25,1.138,25S28.526,25,32.507,25z"/><path d="M16,31c0.128,0,0.25,0.024,0.362,0.068c-0.122,0.07-0.204,0.202-0.204,0.353c0,0.225,0.183,0.408,0.408,0.408c0.154,0,0.289-0.086,0.358-0.212C16.973,31.735,17,31.864,17,32c0,0.552-0.448,1-1,1c-0.552,0-1-0.448-1-1C15,31.448,15.448,31,16,31"/><path d="M0,29h49.857c-1.086-0.275-3.435-0.647-3.047-2.07c-1.974,2.284-6.734,1.602-7.936,0.476c-1.338,1.94-9.126,1.203-9.669-0.309c-1.677,1.968-6.874,1.968-8.552,0c-0.543,1.512-8.332,2.249-9.67,0.309c-1.201,1.126-5.961,1.808-7.935-0.476C3.435,28.353,1.086,28.725,0,29"/><rect x="26" y="20" style="fill:none;stroke:#000000;stroke-width:2;stroke-miterlimit:10;" width="5" height="5"/><rect x="21" y="20" style="fill:none;stroke:#000000;stroke-width:2;stroke-miterlimit:10;" width="5" height="5"/><rect x="16" y="20" style="fill:none;stroke:#000000;stroke-width:2;stroke-miterlimit:10;" width="5" height="5"/><rect x="11" y="20" style="fill:none;stroke:#000000;stroke-width:2;stroke-miterlimit:10;" width="5" height="5"/><rect x="6" y="20" style="fill:none;stroke:#000000;stroke-width:2;stroke-miterlimit:10;" width="5" height="5"/><rect x="21" y="10" style="fill:none;stroke:#000000;stroke-width:2;stroke-miterlimit:10;" width="5" height="5"/><rect x="21" y="15" style="fill:none;stroke:#000000;stroke-width:2;stroke-miterlimit:10;" width="5" height="5"/><rect x="16" y="15" style="fill:none;stroke:#000000;stroke-width:2;stroke-miterlimit:10;" width="5" height="5"/><rect x="11" y="15" style="fill:none;stroke:#000000;stroke-width:2;stroke-miterlimit:10;" width="5" height="5"/><path style="fill:none;stroke:#000000;stroke-width:2;stroke-linecap:round;stroke-linejoin:round;stroke-miterlimit:10;" d="M13.192,33.766c0,0-4.591,1.604-9.894,0.684"/></svg>